<svg xmlns="http://www.w3.org/2000/svg" width="78" height="77.064" viewBox="0 0 78 77.064">
  <g id="Box_icon" data-name="Box icon" transform="translate(0.55 0.55)">
    <path id="Path_1118" data-name="Path 1118" d="M71.213,57.25V73.131L42.784,86.885,12.55,73.131V57.4" transform="translate(-3.014 -11.871)" fill="none" stroke="#1b8158" stroke-linecap="round" stroke-linejoin="round" stroke-width="3"/>
    <path id="Path_1119" data-name="Path 1119" d="M13.134,37.35,43.541,48.457,72.285,37.569" transform="translate(-3.783 -7.666)" fill="none" stroke="#1b8158" stroke-linecap="round" stroke-linejoin="round" stroke-width="3"/>
    <line id="Line_35" data-name="Line 35" y2="32.675" transform="translate(39.775 42.34)" fill="none" stroke="#1b8158" stroke-linecap="round" stroke-linejoin="round" stroke-width="3"/>
    <path id="Path_1120" data-name="Path 1120" d="M39.092,49.432,30.505,62.35,1.25,48.6,9.837,37.35" transform="translate(-0.3 -7.878)" fill="none" stroke="#1b8158" stroke-linecap="round" stroke-linejoin="round" stroke-width="3"/>
    <line id="Line_36" data-name="Line 36" x2="15.018" y2="4.96" transform="translate(53.181 24.2)" fill="none" stroke="#1b8158" stroke-linecap="round" stroke-linejoin="round" stroke-width="3"/>
    <line id="Line_37" data-name="Line 37" y1="4.96" x2="15.018" transform="translate(9.536 24.2)" fill="none" stroke="#1b8158" stroke-linecap="round" stroke-linejoin="round" stroke-width="3"/>
    <path id="Path_1121" data-name="Path 1121" d="M78.558,37.35,86.308,48.6,60.472,61.438,51.05,49.432" transform="translate(-10.359 -7.899)" fill="none" stroke="#1b8158" stroke-linecap="round" stroke-linejoin="round" stroke-width="3"/>
    <path id="Path_1122" data-name="Path 1122" d="M40.75,28.75l6.427,6.5,6.357-6.5" transform="translate(-8.253 -6.115)" fill="none" stroke="#1b8158" stroke-linecap="round" stroke-linejoin="round" stroke-width="3"/>
    <line id="Line_38" data-name="Line 38" y1="15.857" transform="translate(38.918 12.316)" fill="none" stroke="#1b8158" stroke-linecap="round" stroke-linejoin="round" stroke-width="3"/>
    <line id="Line_39" data-name="Line 39" y1="6.079" transform="translate(38.917 0.95)" fill="none" stroke="#1b8158" stroke-linecap="round" stroke-linejoin="round" stroke-width="3" stroke-dasharray="0.477 5.977"/>
    <line id="Line_40" data-name="Line 40" y1="5.379" transform="translate(45.466 9.954)" fill="none" stroke="#1b8158" stroke-linecap="round" stroke-linejoin="round" stroke-width="3"/>
    <line id="Line_41" data-name="Line 41" y1="1.397" transform="translate(45.466 3.318)" fill="none" stroke="#1b8158" stroke-linecap="round" stroke-linejoin="round" stroke-width="3" stroke-dasharray="0.615 7.383"/>
    <line id="Line_42" data-name="Line 42" y1="2.864" transform="translate(32.291 13.955)" fill="none" stroke="#1b8158" stroke-linecap="round" stroke-linejoin="round" stroke-width="3"/>
    <line id="Line_43" data-name="Line 43" y1="1.397" transform="translate(32.291 5.833)" fill="none" stroke="#1b8158" stroke-linecap="round" stroke-linejoin="round" stroke-width="3" stroke-dasharray="0.615 7.383"/>
  </g>
</svg>
