<svg xmlns="http://www.w3.org/2000/svg" width="80.331" height="75.947" viewBox="0 0 80.331 75.947">
  <g id="Donate_icon" data-name="Donate icon" transform="translate(0.473 0.494)">
    <path id="Path_1128" data-name="Path 1128" d="M47.1,1.53A20.926,20.926,0,0,0,31.515,5.159a20.859,20.859,0,0,0,8.823,37.52,23.32,23.32,0,0,0,3.381.247,20.126,20.126,0,0,0,12.122-3.958A20.811,20.811,0,0,0,47.1,1.53Z" transform="translate(-4.005 -0.219)" fill="none" stroke="#1b8158" stroke-linecap="round" stroke-linejoin="round" stroke-width="3"/>
    <path id="Path_1129" data-name="Path 1129" d="M47.988,34.225v1.269a1.493,1.493,0,1,1-2.985,0V34.225a7.471,7.471,0,0,1-5.149-3.581,1.472,1.472,0,1,1,2.537-1.493,4.5,4.5,0,0,0,2.537,2.015V24.9c-4.7-.971-5.746-3.657-5.746-5.9,0-2.985,2.462-5.448,5.746-6.045V11.689a1.493,1.493,0,1,1,2.985,0v1.268a7.268,7.268,0,0,1,5.074,3.359,1.511,1.511,0,0,1-2.537,1.642,4.372,4.372,0,0,0-2.537-1.94V22.36c2.387.448,5.746,1.567,5.746,5.9.074,2.91-2.388,5.372-5.672,5.969m0-8.805v5.746c1.642-.448,2.761-1.567,2.761-2.91,0-1.418-.448-2.314-2.761-2.836m-5.746-6.343c0,.671,0,2.09,2.761,2.836V16.166c-1.567.448-2.761,1.567-2.761,2.91" transform="translate(-6.872 -1.788)" fill="#1b8158"/>
    <path id="Path_1130" data-name="Path 1130" d="M15.832,78.56c4.964-.211,9.507-.068,13.089,1.277l.46.182.24.1q2.314.9,4.859,1.766A30.215,30.215,0,0,0,47.511,83.8c5.474-.518,14.405-6.261,21.223-11.168C81.824,63.2,82.179,59.287,80.258,57.27c-2.1-2.266-8.306,2.036-17,7.874" transform="translate(-2.777 -9.936)" fill="none" stroke="#1b8158" stroke-linecap="round" stroke-linejoin="round" stroke-width="3"/>
    <path id="Path_1131" data-name="Path 1131" d="M33.9,67.471A80.964,80.964,0,0,0,44,70.524c4.657.75,15.576,1.1,15.624-1.786s-4.964-3.649-14.28-6.952C39.476,59.7,34.78,55.448,29.767,55.409A24.309,24.309,0,0,0,19.2,58.127c-2.2,1.009-4.168,1.844-5.992,2.5" transform="translate(-2.317 -9.718)" fill="none" stroke="#1b8158" stroke-linecap="round" stroke-linejoin="round" stroke-width="3"/>
    <path id="Path_1132" data-name="Path 1132" d="M3.814,59.011l4.032-.494A2.92,2.92,0,0,1,11.1,61.06l2.26,18.463a2.919,2.919,0,0,1-2.543,3.252l-4.032.494a2.92,2.92,0,0,1-3.253-2.543L1.271,62.264A2.92,2.92,0,0,1,3.814,59.011Z" transform="translate(-0.219 -10.259)" fill="none" stroke="#1b8158" stroke-linecap="round" stroke-linejoin="round" stroke-width="3"/>
    <line id="Line_57" data-name="Line 57" x2="0.058" y2="0.413" transform="translate(6.304 54.21)" fill="none" stroke="#1b8158" stroke-linecap="round" stroke-linejoin="round" stroke-width="3"/>
  </g>
</svg>
