<svg xmlns="http://www.w3.org/2000/svg" width="97.983" height="65.564" viewBox="0 0 97.983 65.564">
  <g id="Download_laptop_icon" data-name="Download laptop icon" transform="translate(0.412 0.282)">
    <path id="Path_1123" data-name="Path 1123" d="M1.835,59.25H95.29a.666.666,0,0,1,.682.682v1.949a3.453,3.453,0,0,1-3.411,3.411H4.661A3.453,3.453,0,0,1,1.25,61.881V59.932A.652.652,0,0,1,1.835,59.25Z" transform="translate(-0.032 -1.51)" fill="none" stroke="#1b8158" stroke-linecap="round" stroke-linejoin="round" stroke-width="3"/>
    <line id="Line_44" data-name="Line 44" x2="2.924" transform="translate(47.118 5.896)" fill="none" stroke="#1b8158" stroke-linecap="round" stroke-linejoin="round" stroke-width="3"/>
    <line id="Line_45" data-name="Line 45" x2="76.597" transform="translate(10.281 10.476)" fill="none" stroke="#1b8158" stroke-linecap="round" stroke-linejoin="round" stroke-width="3"/>
    <path id="Path_1124" data-name="Path 1124" d="M1.75,57.772l8.576-9.648V8.169A6.946,6.946,0,0,1,17.245,1.25H79.906a7.029,7.029,0,0,1,7.017,6.919v40.15L95.5,57.967" transform="translate(-0.044 -0.032)" fill="none" stroke="#1b8158" stroke-linecap="round" stroke-linejoin="round" stroke-width="3"/>
    <line id="Line_46" data-name="Line 46" x2="76.597" transform="translate(10.281 48.19)" fill="none" stroke="#1b8158" stroke-linecap="round" stroke-linejoin="round" stroke-width="3"/>
    <line id="Line_47" data-name="Line 47" x2="1.949" transform="translate(47.118 53.257)" fill="none" stroke="#1b8158" stroke-linecap="round" stroke-linejoin="round" stroke-width="3"/>
    <line id="Line_48" data-name="Line 48" x2="1.949" transform="translate(53.842 53.257)" fill="none" stroke="#1b8158" stroke-linecap="round" stroke-linejoin="round" stroke-width="3"/>
    <line id="Line_49" data-name="Line 49" x2="1.852" transform="translate(33.767 53.257)" fill="none" stroke="#1b8158" stroke-linecap="round" stroke-linejoin="round" stroke-width="3"/>
    <line id="Line_50" data-name="Line 50" x2="1.949" transform="translate(40.394 53.257)" fill="none" stroke="#1b8158" stroke-linecap="round" stroke-linejoin="round" stroke-width="3"/>
    <line id="Line_51" data-name="Line 51" x2="1.949" transform="translate(27.043 53.257)" fill="none" stroke="#1b8158" stroke-linecap="round" stroke-linejoin="round" stroke-width="3"/>
    <line id="Line_52" data-name="Line 52" x2="1.949" transform="translate(13.594 53.257)" fill="none" stroke="#1b8158" stroke-linecap="round" stroke-linejoin="round" stroke-width="3"/>
    <line id="Line_53" data-name="Line 53" x2="1.949" transform="translate(20.319 53.257)" fill="none" stroke="#1b8158" stroke-linecap="round" stroke-linejoin="round" stroke-width="3"/>
    <line id="Line_54" data-name="Line 54" x2="1.949" transform="translate(74.891 53.257)" fill="none" stroke="#1b8158" stroke-linecap="round" stroke-linejoin="round" stroke-width="3"/>
    <line id="Line_55" data-name="Line 55" x2="1.949" transform="translate(81.615 53.257)" fill="none" stroke="#1b8158" stroke-linecap="round" stroke-linejoin="round" stroke-width="3"/>
    <line id="Line_56" data-name="Line 56" x2="1.949" transform="translate(68.167 53.257)" fill="none" stroke="#1b8158" stroke-linecap="round" stroke-linejoin="round" stroke-width="3"/>
    <path id="Path_1125" data-name="Path 1125" d="M58.75,29.354a2.911,2.911,0,0,0-4.093,0L52.514,31.5V20.974a2.924,2.924,0,1,0-5.847,0V31.5L44.62,29.354a2.894,2.894,0,1,0-4.093,4.093l7.114,7.211a2.856,2.856,0,0,0,3.118.682h.1a2.13,2.13,0,0,0,.487-.292.761.761,0,0,0,.39-.39l7.114-7.211A2.911,2.911,0,0,0,58.75,29.354Z" transform="translate(-1.01 -0.46)" fill="none" stroke="#1b8158" stroke-linecap="round" stroke-linejoin="round" stroke-width="3"/>
  </g>
</svg>
