<svg xmlns="http://www.w3.org/2000/svg" width="70.478" height="79.72" viewBox="0 0 70.478 79.72">
  <g id="Repeat_icon" data-name="Repeat icon" transform="translate(2.452 2.355)">
    <path id="Path_1114" data-name="Path 1114" d="M22.015,65.852c-7.122-10.033-6.77-21.514-1.127-32.448A32.9,32.9,0,0,1,50.106,15.59,33.265,33.265,0,0,1,70.03,21.737" transform="translate(-17.224 -11.41)" fill="none" stroke="#1b8158" stroke-linecap="round" stroke-linejoin="round" stroke-width="3.5"/>
    <path id="Path_1115" data-name="Path 1115" d="M79.175,32.531c7.46,9.971,7.726,21.37,2.149,32.5A33.427,33.427,0,0,1,32.08,76.921" transform="translate(-19.035 -13.24)" fill="none" stroke="#1b8158" stroke-linecap="round" stroke-linejoin="round" stroke-width="3.5"/>
    <path id="Path_1116" data-name="Path 1116" d="M64.54,22.816l11.3-1.7L70.581,10.83" transform="translate(-22.991 -10.83)" fill="none" stroke="#1b8158" stroke-linecap="round" stroke-linejoin="round" stroke-width="3.5"/>
    <path id="Path_1117" data-name="Path 1117" d="M43.8,81.16,32.09,83.083,38.07,94.4" transform="translate(-19.036 -19.402)" fill="none" stroke="#1b8158" stroke-linecap="round" stroke-linejoin="round" stroke-width="3.5"/>
  </g>
</svg>
