<svg xmlns="http://www.w3.org/2000/svg" width="80.817" height="78" viewBox="0 0 80.817 78">
  <g id="Select_Icon" data-name="Select Icon" transform="translate(0.431 0.431)">
    <path id="Path_1126" data-name="Path 1126" d="M61.011,64.653h0v-.264c0-.088-.088-8.539-.528-11.972a4.418,4.418,0,0,0-.176-1.056,3.226,3.226,0,0,0-3.081-2.2,3.144,3.144,0,0,0-2.377,1.056,3.633,3.633,0,0,0-3.785-3.433,3.733,3.733,0,0,0-2.729,1.5,3.691,3.691,0,0,0-4.313-2.9,3.614,3.614,0,0,0-2.729,2.289V34.9c0-2.2-1.585-4.049-3.433-4.049S34.427,32.7,34.427,34.9V57.259c-.44-1.408-.88-2.641-1.232-3.521-1.232-3.169-3.609-5.106-5.546-4.666-2.9.616-.792,5.194.088,8.715.7,2.9,2.2,8.363,2.729,9.683a22.239,22.239,0,0,0,2.9,5.546,15.06,15.06,0,0,0,13.116,6.778C52.913,79.706,61.1,75.921,61.011,64.653Z" transform="translate(-3.164 -3.725)" fill="none" stroke="#1b8158" stroke-linecap="round" stroke-linejoin="round" stroke-width="3"/>
    <path id="Path_1127" data-name="Path 1127" d="M26.338,37.166H6.8A5.523,5.523,0,0,1,1.25,31.62V6.8A5.523,5.523,0,0,1,6.8,1.25H73.521A5.523,5.523,0,0,1,79.067,6.8V31.62a5.523,5.523,0,0,1-5.546,5.546H43.416" transform="translate(-0.181 -0.181)" fill="none" stroke="#1b8158" stroke-linecap="round" stroke-linejoin="round" stroke-width="3"/>
  </g>
</svg>
